<?xml version="1.0" encoding="UTF-8" standalone="no"?>
<svg
   xmlns:dc="http://purl.org/dc/elements/1.1/"
   xmlns:cc="http://creativecommons.org/ns#"
   xmlns:rdf="http://www.w3.org/1999/02/22-rdf-syntax-ns#"
   xmlns:svg="http://www.w3.org/2000/svg"
   xmlns="http://www.w3.org/2000/svg"
   xmlns:sodipodi="http://sodipodi.sourceforge.net/DTD/sodipodi-0.dtd"
   xmlns:inkscape="http://www.inkscape.org/namespaces/inkscape"
   inkscape:version="1.0 (6e3e5246a0, 2020-05-07)"
   sodipodi:docname="woodland.svg"
   id="svg12"
   version="1.1"
   viewBox="0 0 128 128"
   height="512"
   width="512">
  <metadata
     id="metadata18">
    <rdf:RDF>
      <cc:Work
         rdf:about="">
        <dc:format>image/svg+xml</dc:format>
        <dc:type
           rdf:resource="http://purl.org/dc/dcmitype/StillImage" />
      </cc:Work>
    </rdf:RDF>
  </metadata>
  <defs
     id="defs16" />
  <sodipodi:namedview
     inkscape:current-layer="svg12"
     inkscape:window-maximized="1"
     inkscape:window-y="27"
     inkscape:window-x="70"
     inkscape:cy="316.698"
     inkscape:cx="342.04977"
     inkscape:zoom="1.2015291"
     showgrid="false"
     id="namedview14"
     inkscape:window-height="1016"
     inkscape:window-width="1850"
     inkscape:pageshadow="2"
     inkscape:pageopacity="0"
     guidetolerance="10"
     gridtolerance="10"
     objecttolerance="10"
     borderopacity="1"
     bordercolor="#666666"
     pagecolor="#ffffff" />
  <g
     transform="matrix(1.0764643,0,0,1.0764643,-5.0360272,-4.7478383)"
     style="fill:#716040;fill-opacity:1"
     id="g10">
    <path
       style="fill:#716040;fill-opacity:1"
       id="path2"
       d="M 121.693,119.943 H 102.356 V 92.991 a 9.677,9.677 0 0 0 1.12,0.071 9.8,9.8 0 0 0 9.783,-9.784 v -0.094 a 9.788,9.788 0 0 0 6.871,-15.064 9.776,9.776 0 0 0 -1.016,-15.453 9.772,9.772 0 0 0 -4.783,-11.961 9.571,9.571 0 0 0 0.146,-1.663 9.792,9.792 0 0 0 -8,-9.61 9.783,9.783 0 0 0 -19.554,-0.013 9.662,9.662 0 0 0 -1.65,0.479 v 0 a 11.506,11.506 0 0 0 0.229,-2.278 11.659,11.659 0 0 0 -9.851,-11.5 11.650002,11.650002 0 0 0 -23.3,-0.013 11.667,11.667 0 0 0 -9.851,11.511 11.506,11.506 0 0 0 0.23,2.281 v 0 a 9.507,9.507 0 0 0 -1.65,-0.475 9.783,9.783 0 0 0 -19.553,0 9.8,9.8 0 0 0 -8,9.621 9.571,9.571 0 0 0 0.146,1.663 A 9.772,9.772 0 0 0 8.886,52.667 9.776,9.776 0 0 0 7.87,68.12 9.788,9.788 0 0 0 14.741,83.184 v 0.094 a 9.8,9.8 0 0 0 9.783,9.784 9.677,9.677 0 0 0 1.12,-0.071 v 26.952 H 6.307 a 1.75,1.75 0 0 0 0,3.5 h 115.386 a 1.75,1.75 0 0 0 0,-3.5 z M 90.1,32.151 a 1.751,1.751 0 0 0 0.4,-1.406 6.136,6.136 0 0 1 -0.084,-0.966 6.283,6.283 0 1 1 12.566,0 6.136,6.136 0 0 1 -0.084,0.966 1.767,1.767 0 0 0 0.434,1.4 1.817,1.817 0 0 0 1.361,0.61 6.264,6.264 0 0 1 5.91,8.4 1.751,1.751 0 0 0 1.132,2.264 6.272,6.272 0 0 1 3.6,9.126 1.749,1.749 0 0 0 0.821,2.477 6.279,6.279 0 0 1 0.585,11.237 1.75,1.75 0 0 0 -0.371,2.767 6.281,6.281 0 0 1 -4.423,10.744 c -0.171,0 -0.339,-0.013 -0.506,-0.027 a 1.749,1.749 0 0 0 -1.845,2.132 6.385,6.385 0 0 1 0.163,1.4 6.278,6.278 0 0 1 -11.583,3.364 1.751,1.751 0 0 0 -2.953,0 6.265,6.265 0 0 1 -11.457,-2.2 A 11.656,11.656 0 0 0 84,82.126 c 0,-0.158 0,-0.316 -0.011,-0.476 a 11.651,11.651 0 0 0 8.342,-18.273 11.639,11.639 0 0 0 -1.2,-18.806 11.655,11.655 0 0 0 -2.1,-11.836 1.819,1.819 0 0 0 1.069,-0.584 z M 72.349,93.774 a 11.635,11.635 0 0 0 9.522,-4.96 9.828,9.828 0 0 0 8.053,4.248 9.659,9.659 0 0 0 1.119,-0.071 v 26.952 h -20.48 v -26.32 a 11.633,11.633 0 0 0 1.786,0.151 z M 46.4,31.735 a 1.749,1.749 0 0 0 0.083,-1.373 8.131,8.131 0 0 1 7.578,-10.894 1.843,1.843 0 0 0 1.5,-0.605 1.753,1.753 0 0 0 0.4,-1.407 8.02,8.02 0 0 1 -0.108,-1.251 8.15,8.15 0 1 1 16.3,0 8.02,8.02 0 0 1 -0.108,1.251 1.772,1.772 0 0 0 0.441,1.405 1.835,1.835 0 0 0 1.37,0.61 8.128,8.128 0 0 1 7.664,10.891 1.752,1.752 0 0 0 1.132,2.263 8.135,8.135 0 0 1 4.663,11.835 1.751,1.751 0 0 0 0.822,2.478 8.143,8.143 0 0 1 0.763,14.572 1.751,1.751 0 0 0 -0.372,2.767 8.146,8.146 0 0 1 -5.734,13.934 c -0.223,0 -0.44,-0.017 -0.658,-0.034 a 1.75,1.75 0 0 0 -1.845,2.134 8.139,8.139 0 0 1 -14.809,6.178 1.75,1.75 0 0 0 -2.954,0 8.135,8.135 0 0 1 -14.809,-6.178 1.75,1.75 0 0 0 -1.845,-2.134 c -0.218,0.017 -0.435,0.034 -0.658,0.034 A 8.145,8.145 0 0 1 39.482,64.277 1.751,1.751 0 0 0 39.1,61.51 8.143,8.143 0 0 1 39.858,46.938 1.751,1.751 0 0 0 40.68,44.46 8.135,8.135 0 0 1 45.348,32.625 1.751,1.751 0 0 0 46.4,31.735 Z m -8.324,61.327 a 9.828,9.828 0 0 0 8.053,-4.248 11.483,11.483 0 0 0 11.308,4.809 v 26.32 H 36.957 V 92.991 a 9.659,9.659 0 0 0 1.119,0.071 z M 18.241,83.278 a 6.385,6.385 0 0 1 0.163,-1.4 1.749,1.749 0 0 0 -1.845,-2.132 c -0.167,0.014 -0.335,0.027 -0.506,0.027 A 6.281,6.281 0 0 1 11.63,69.027 1.75,1.75 0 0 0 11.259,66.26 a 6.279,6.279 0 0 1 0.585,-11.237 1.749,1.749 0 0 0 0.821,-2.477 6.272,6.272 0 0 1 3.6,-9.126 1.751,1.751 0 0 0 1.135,-2.264 6.267,6.267 0 0 1 5.824,-8.4 1.834,1.834 0 0 0 1.48,-0.606 1.751,1.751 0 0 0 0.4,-1.406 6.136,6.136 0 0 1 -0.084,-0.966 6.283,6.283 0 0 1 12.566,0 6.136,6.136 0 0 1 -0.084,0.966 1.767,1.767 0 0 0 0.434,1.4 1.788,1.788 0 0 0 1.05,0.577 11.653,11.653 0 0 0 -2.111,11.844 11.639,11.639 0 0 0 -1.2,18.806 11.65,11.65 0 0 0 8.338,18.279 c -0.007,0.16 -0.011,0.318 -0.011,0.476 a 11.656,11.656 0 0 0 0.232,2.311 6.265,6.265 0 0 1 -11.457,2.2 1.751,1.751 0 0 0 -2.953,0 6.278,6.278 0 0 1 -11.583,-3.364 z m 10.9,36.665 V 91.9 A 9.745,9.745 0 0 0 31.3,90.331 9.693,9.693 0 0 0 33.457,91.9 v 28.044 z m 31.793,0 V 92.5 A 11.61,11.61 0 0 0 64,90.241 11.61,11.61 0 0 0 67.063,92.5 v 27.447 z m 33.606,0 V 91.9 a 9.693,9.693 0 0 0 2.16,-1.569 9.745,9.745 0 0 0 2.156,1.569 v 28.044 z" />
    <path
       style="fill:#716040;fill-opacity:1"
       id="path4"
       d="m 72.05,33.15 a 1.75,1.75 0 0 0 1.129,2.2 1.73,1.73 0 0 0 0.537,0.085 1.752,1.752 0 0 0 1.666,-1.214 5.408,5.408 0 0 0 -1.613,-5.989 1.7503195,1.7503195 0 0 0 -2.393,2.555 1.966,1.966 0 0 1 0.674,2.363 z" />
    <path
       style="fill:#716040;fill-opacity:1"
       id="path6"
       d="m 75.441,71.371 h -0.007 a 1.75,1.75 0 0 0 -1.743,1.757 c 0.008,1.755 -0.17,1.946 -1.024,2.862 a 1.7501226,1.7501226 0 0 0 2.561,2.386 c 1.459,-1.565 1.975,-2.6 1.963,-5.263 a 1.75,1.75 0 0 0 -1.75,-1.742 z" />
    <path
       style="fill:#716040;fill-opacity:1"
       id="path8"
       d="m 75.418,39.083 a 1.75,1.75 0 0 0 0.468,2.43 c 0.025,0.017 2.494,1.752 2.743,4.205 a 6.975,6.975 0 0 1 -1.9,5.385 1.751,1.751 0 0 0 2.4,2.548 10.56,10.56 0 0 0 2.977,-8.286 C 81.689,41.265 78,38.721 77.844,38.615 a 1.75,1.75 0 0 0 -2.426,0.468 z" />
  </g>
</svg>
